<svg width="492" height="492" xmlns="http://www.w3.org/2000/svg">

 <g>
  <title>background</title>
  <rect fill="none" id="canvas_background" height="402" width="582" y="-1" x="-1"/>
 </g>
 <g>
  <title>Layer 1</title>
  <g id="svg_1">
   <g id="svg_2">
    <path fill="#ffffff" stroke="#ffffff" id="svg_3" d="m198.608,246.104l184.056,-184.064c5.068,-5.056 7.856,-11.816 7.856,-19.024c0,-7.212 -2.788,-13.968 -7.856,-19.032l-16.128,-16.12c-5.06,-5.072 -11.824,-7.864 -19.032,-7.864s-13.964,2.792 -19.028,7.864l-219.148,219.144c-5.084,5.08 -7.868,11.868 -7.848,19.084c-0.02,7.248 2.76,14.028 7.848,19.112l218.944,218.932c5.064,5.072 11.82,7.864 19.032,7.864c7.208,0 13.964,-2.792 19.032,-7.864l16.124,-16.12c10.492,-10.492 10.492,-27.572 0,-38.06l-183.852,-183.852z"/>
   </g>
  </g>
  <g id="svg_4"/>
  <g id="svg_5"/>
  <g id="svg_6"/>
  <g id="svg_7"/>
  <g id="svg_8"/>
  <g id="svg_9"/>
  <g id="svg_10"/>
  <g id="svg_11"/>
  <g id="svg_12"/>
  <g id="svg_13"/>
  <g id="svg_14"/>
  <g id="svg_15"/>
  <g id="svg_16"/>
  <g id="svg_17"/>
  <g id="svg_18"/>
 </g>
</svg>