<?xml version="1.0" encoding="iso-8859-1"?>
<!-- Generator: Adobe Illustrator 19.0.0, SVG Export Plug-In . SVG Version: 6.00 Build 0)  -->
<svg version="1.1" id="Capa_1" xmlns="http://www.w3.org/2000/svg" xmlns:xlink="http://www.w3.org/1999/xlink" x="0px" y="0px"
	 viewBox="0 0 455.111 455.111" style="enable-background:new 0 0 455.111 455.111;" xml:space="preserve">
<path style="fill:#5CA4DA;" d="M406.756,455.111h-358.4C21.333,455.111,0,433.778,0,406.756v-358.4C0,21.333,21.333,0,48.356,0
	h358.4c27.022,0,48.356,21.333,48.356,48.356v358.4C455.111,433.778,433.778,455.111,406.756,455.111z"/>
<path style="fill:#6DAFE0;" d="M366.933,0c-17.067,73.956-61.156,153.6-129.422,221.867C164.978,294.4,78.222,339.911,0,354.133
	V48.356C0,21.333,21.333,0,48.356,0H366.933z"/>
<path style="fill:#FFFFFF;" d="M355.556,355.556c-11.378,11.378-28.444,11.378-38.4,0l-89.6-89.6l-89.6,89.6
	c-9.956,11.378-27.022,11.378-38.4,0c-11.378-9.956-11.378-28.444,0-38.4l89.6-89.6l-89.6-89.6c-11.378-9.956-11.378-28.444,0-38.4
	c9.956-9.956,27.022-9.956,38.4,0l89.6,89.6l89.6-89.6c9.956-9.956,28.444-9.956,38.4,0s9.956,28.444,0,38.4l-89.6,89.6l89.6,89.6
	C366.933,328.533,366.933,345.6,355.556,355.556z"/>
<g>
</g>
<g>
</g>
<g>
</g>
<g>
</g>
<g>
</g>
<g>
</g>
<g>
</g>
<g>
</g>
<g>
</g>
<g>
</g>
<g>
</g>
<g>
</g>
<g>
</g>
<g>
</g>
<g>
</g>
</svg>
