<svg width="1280" height="300" xmlns="http://www.w3.org/2000/svg" stroke="null" style="vector-effect: non-scaling-stroke;" preserveAspectRatio="xMidYMid meet">
 <metadata stroke="null" style="vector-effect: non-scaling-stroke;">Created by potrace 1.15, written by Peter Selinger 2001-2017</metadata>

 <g stroke="null">
  <title stroke="null">background</title>
  <rect stroke="null" fill="none" id="canvas_background" height="302" width="1282" y="-1" x="-1"/>
 </g>
 <g stroke="null">
  <title stroke="null">Layer 1</title>
  <g stroke="null" id="svg_4" fill="#000000" transform="translate(0,662) scale(0.10000000149011612,-0.10000000149011612) ">
   <path stroke="#0f7dc2" fill="#96c9e6" id="svg_3" d="m12933.145002,6582.128963c-238.436573,-240.120597 -610.479847,-405.290256 -1026.716106,-455.720207c-89.413715,-10.641183 -122.301518,-12.491823 -256.935962,-12.491823c-134.634444,0 -167.522247,1.85064 -256.935962,12.491823c-242.547548,29.147587 -489.206072,102.247884 -681.394172,202.645128c-102.774385,53.205913 -241.519805,147.588575 -315.517362,215.599611c-33.915547,31.460887 -64.747863,56.907193 -67.831094,56.907193c-3.083232,0 -23.638109,-18.043744 -45.220729,-40.251429c-50.359449,-49.967292 -163.411272,-136.022072 -239.464317,-181.825423c-86.330483,-52.280592 -261.046938,-130.470151 -362.793579,-162.856358c-535.454546,-171.18424 -1120.240796,-131.858131 -1595.058454,106.411825c-107.913104,54.131233 -251.797243,152.215176 -328.878032,223.927493c-34.943291,32.386208 -65.775606,58.757834 -68.858838,59.220494c-4.110975,0 -28.776828,-21.745025 -55.498168,-48.116651c-352.51614,-345.607101 -1007.188972,-514.940701 -1619.724307,-420.095379c-323.739313,50.429952 -638.22893,185.989364 -860.221602,370.590747c-26.72134,21.745025 -51.387192,40.71409 -54.470424,42.10207c-4.110975,1.38798 -17.471645,12.954483 -29.804572,25.446306l-22.610365,23.133005l-31.860059,-32.386208c-17.471645,-17.581084 -61.664631,-56.444533 -97.635666,-85.59212c-305.239923,-246.597838 -774.918862,-389.559812 -1241.51457,-377.530649c-470.706683,12.029163 -912.636538,170.72158 -1195.266097,429.348581c-38.026522,34.699508 -70.914326,63.384435 -73.997557,63.384435c-3.083232,0 -35.971035,-28.684927 -72.969813,-63.384435c-430.624673,-401.588975 -1248.708777,-544.088288 -1905.437097,-331.727298c-215.826208,69.861676 -386.431687,161.005718 -550.870703,292.401189l-61.664631,49.967292l6.166463,-23.133005c3.083232,-12.491823 19.527133,-93.920002 35.971035,-180.437443c79.136276,-408.066216 133.6067,-685.662282 136.689932,-697.228784c2.055488,-7.402562 0,-12.954483 -3.083232,-12.954483c-4.110975,0 -41.109754,28.684927 -81.191764,63.847095l-73.997557,63.384435l6.166463,-25.446306c3.083232,-13.879803 24.665852,-125.38089 47.276217,-247.523158c22.610365,-122.142269 58.581399,-319.698135 81.191764,-439.527104c22.610365,-119.366308 41.109754,-222.539512 41.109754,-229.016754c0,-11.103843 -1.027744,-10.641183 -22.610365,4.626601c-12.332926,8.790542 -53.44268,43.49005 -92.496946,76.338918c-76.053045,65.697735 -76.053045,66.160396 -59.609143,-13.417143c6.166463,-28.222267 35.971035,-190.615965 66.80335,-361.337545c31.860059,-170.72158 72.969813,-399.275674 93.52469,-508.92612l35.971035,-198.481187l47.276217,-30.072907c177.799686,-111.963746 432.680161,-187.377344 732.781365,-216.062271c109.968592,-10.641183 381.292968,-12.029163 488.178328,-2.313301c436.791136,38.863449 785.196301,173.960201 1022.60513,396.037053c38.026522,35.624828 72.969813,69.861676 78.108533,75.413598c9.249695,9.715862 14.388414,6.014581 53.44268,-34.699508c55.498168,-56.444533 160.328041,-138.798033 240.492061,-187.377344c282.629559,-171.6469 680.366428,-266.029563 1081.18653,-256.776361c326.822544,7.402562 589.92497,61.996455 833.500262,172.109561c166.494504,74.950938 300.101204,164.706999 397.73687,267.417543l43.165242,45.340691l67.831094,-63.847095c38.026522,-35.162168 88.385971,-78.189558 112.02408,-96.233303c23.638109,-17.581084 46.248473,-38.400789 49.331705,-46.266011c13.36067,-32.386208 210.687489,-130.470151 350.460653,-173.960201c141.828651,-44.41537 371.01553,-84.6668 566.286861,-99.009263c294.962485,-22.207685 631.034724,12.029163 874.610016,89.293401c174.716454,55.056553 400.820101,177.198822 400.820101,216.062271c0,10.641183 21.582621,34.699508 65.775606,72.637637c34.943291,31.460887 76.053045,69.861676 89.413715,86.05478c13.36067,15.730444 26.72134,28.684927 29.804572,28.684927c3.083232,-0.46266 40.08201,-32.848868 83.247252,-73.100297c43.165242,-39.788769 105.857616,-91.144041 139.773164,-114.277047c283.657302,-193.391926 669.061246,-298.41577 1097.630431,-298.41577c429.596929,0 825.278311,104.098525 1096.602687,289.162568c58.581399,40.251429 170.605479,136.022072 207.604258,177.661482l17.471645,20.357045l45.220729,-44.878031c246.658524,-246.597838 628.979236,-399.275674 1089.40848,-435.825823c112.02408,-9.253202 340.183214,-6.477242 454.262781,4.626601c156.217065,15.267784 307.295411,44.878031 434.735648,85.12946c96.607922,30.072907 262.074682,107.799805 335.044495,156.379117l61.664631,41.63941l12.332926,66.623056c6.166463,37.012809 55.498168,300.266411 109.968592,584.802378c53.44268,284.998627 96.607922,518.641982 94.552434,519.104642c-2.055488,0.92532 -18.499389,-15.267784 -38.026522,-36.550149c-18.499389,-20.819705 -53.44268,-55.519213 -78.108533,-77.264238c-38.026522,-33.774188 -44.192986,-37.475469 -44.192986,-24.983646c-1.027744,7.865222 15.416158,95.307982 34.943291,194.317246c19.527133,99.009263 58.581399,301.654391 87.358227,450.630946c27.749084,148.976555 53.44268,275.282765 55.498168,281.297346c5.138719,15.267784 -8.221951,6.939902 -28.776828,-17.118424c-23.638109,-27.759607 -130.523469,-124.918229 -139.773164,-127.69419c-4.110975,-1.38798 -5.138719,6.477242 -3.083232,17.581084c18.499389,76.338918 184.993893,912.828395 182.938405,913.753715c-2.055488,0.92532 -16.443902,-11.566503 -31.860059,-27.759607z"/>
  </g>
  <g stroke="null" id="svg_1" fill="#000000" transform="translate(0,662) scale(0.10000000149011612,-0.10000000149011612) ">
   <path stroke="#0f7dc2" fill="#0f7dc2" id="svg_2" d="m12957.426306,6425.682567c-239.554623,-193.575141 -613.342439,-326.727984 -1031.530466,-367.382493c-89.832984,-8.578474 -122.875,-10.070383 -258.140757,-10.070383c-135.265757,0 -168.307774,1.491909 -258.140757,10.070383c-243.684875,23.49756 -491.500002,82.42795 -684.589288,163.363992c-103.256303,42.892372 -242.652312,118.979711 -316.99685,173.807352c-34.07458,25.362446 -65.051471,45.87619 -68.14916,45.87619c-3.097689,0 -23.74895,-14.546109 -45.432773,-32.449012c-50.595588,-40.281532 -164.177522,-109.655282 -240.587186,-146.58002c-86.735294,-42.146418 -262.271009,-105.179557 -364.494749,-131.287957c-537.965338,-138.001546 -1125.493701,-106.298488 -1602.537821,85.784745c-108.419118,43.638327 -252.977942,122.709483 -330.420169,180.520941c-35.107143,26.108401 -66.084034,47.368098 -69.181723,47.741075c-4.130252,0 -28.911765,-17.529926 -55.758404,-38.789624c-354.169119,-278.613932 -1011.911768,-415.123569 -1627.319333,-338.663253c-325.257354,40.654509 -641.221641,149.936815 -864.255255,298.754698c-26.846639,17.529926 -51.628151,32.821989 -54.725841,33.940921c-4.130252,1.118931 -17.553571,10.44336 -29.944328,20.513743l-22.716387,18.648858l-32.009454,-26.108401c-17.553571,-14.173132 -61.953782,-45.503212 -98.093488,-69.000773c-306.67122,-198.796821 -778.552524,-314.046761 -1247.336139,-304.349355c-472.913867,9.697406 -916.91597,137.628569 -1200.870803,346.122796c-38.204832,27.973286 -71.246849,51.09787 -74.344538,51.09787c-3.097689,0 -36.139706,-23.124583 -73.311975,-51.09787c-432.643909,-323.744167 -1254.56408,-438.621129 -1914.371855,-267.424617c-216.838236,56.31955 -388.243699,129.796048 -553.453783,235.721559l-61.953782,40.281532l6.195378,-18.648858c3.097689,-10.070383 19.618698,-75.714362 36.139706,-145.461089c79.507353,-328.965847 134.233194,-552.752137 137.330883,-562.076566c2.065126,-5.967634 0,-10.44336 -3.097689,-10.44336c-4.130252,0 -41.302521,23.124583 -81.572479,51.470847l-74.344538,51.09787l6.195378,-20.513743c3.097689,-11.189315 24.781513,-101.076808 47.497899,-199.542776c22.716387,-98.465968 58.856093,-257.727211 81.572479,-354.328293c22.716387,-96.228105 41.302521,-179.402009 41.302521,-184.62369c0,-8.951452 -1.032563,-8.578474 -22.716387,3.729772c-12.390756,7.086566 -53.693277,35.059852 -92.930673,61.54123c-76.409664,52.962755 -76.409664,53.335733 -59.888656,-10.816337c6.195378,-22.751606 36.139706,-153.666586 67.116597,-291.295155c32.009454,-137.628569 73.311975,-321.879281 93.963236,-410.274866l36.139706,-160.007198l47.497899,-24.243515c178.633404,-90.26047 434.709035,-151.055746 736.21744,-174.180329c110.484244,-8.578474 383.080884,-9.697406 490.467439,-1.864886c438.839287,31.330081 788.878154,140.239409 1027.400214,319.268441c38.204832,28.719241 73.311975,56.31955 78.47479,60.795276c9.293067,7.83252 14.455882,4.848703 53.693277,-27.973286c55.758404,-45.503212 161.079832,-111.893145 241.619749,-151.055746c283.954833,-138.374523 683.556725,-214.461862 1086.256306,-207.002319c328.355043,5.967634 592.691179,49.978938 837.408616,138.7475c167.275211,60.422298 301.508404,132.779866 399.601892,215.580793l43.367647,36.551761l68.14916,-51.470847c38.204832,-28.346263 88.80042,-63.033138 112.54937,-77.579247c23.74895,-14.173132 46.465336,-30.957104 49.563025,-37.297715c13.423319,-26.108401 211.675421,-105.179557 352.103993,-140.239409c142.493698,-35.805806 372.755253,-68.254819 568.942229,-79.81711c296.345589,-17.902903 633.9937,9.697406 878.711138,71.98459c175.535715,44.384281 402.699581,142.850249 402.699581,174.180329c0,8.578474 21.683824,27.973286 66.084034,58.557413c35.107143,25.362446 76.409664,56.31955 89.832984,69.37375c13.423319,12.681223 26.846639,23.124583 29.944328,23.124583c3.097689,-0.372977 40.269958,-26.481378 83.637605,-58.93039c43.367647,-32.076035 106.353992,-73.476499 140.428572,-92.125356c284.987396,-155.904449 672.198532,-240.570262 1102.777315,-240.570262c431.611346,0 829.148112,83.919859 1101.744752,233.110719c58.856093,32.449012 171.405463,109.655282 208.577732,143.223226l17.553571,16.410995l45.432773,-36.178784c247.815127,-198.796821 631.928574,-321.879281 1094.516811,-351.344476c112.54937,-7.459543 341.778363,-5.22168 456.392859,3.729772c156.94958,12.308246 308.736346,36.178784 436.774161,68.627796c97.060925,24.243515 263.303572,86.903676 336.615547,126.066277l61.953782,33.567944l12.390756,53.70871c6.195378,29.838172 55.758404,242.062171 110.484244,471.443119c53.693277,229.753925 97.060925,418.107386 94.995799,418.480363c-2.065126,0.745954 -18.586135,-12.308246 -38.204832,-29.465195c-18.586135,-16.783972 -53.693277,-44.757258 -78.47479,-62.287184c-38.204832,-27.227332 -44.40021,-30.211149 -44.40021,-20.140766c-1.032563,6.340612 15.488445,76.833293 35.107143,156.650403c19.618698,79.81711 58.856093,243.181102 87.767857,363.279745c27.879202,120.098643 53.693277,221.921405 55.758404,226.770108c5.162815,12.308246 -8.260504,5.594657 -28.911765,-13.800155c-23.74895,-22.378629 -131.135505,-100.703831 -140.428572,-102.941694c-4.130252,-1.118931 -5.162815,5.22168 -3.097689,14.173132c18.586135,61.54123 185.861345,735.883918 183.796219,736.629873c-2.065126,0.745954 -16.521008,-9.324429 -32.009454,-22.378629z"/>
  </g>
  <g stroke="null" id="svg_6" fill="#000000" transform="translate(0,662) scale(0.10000000149011612,-0.10000000149011612) ">
   <path stroke="#0f7dc2" fill="#0f7dc2" id="svg_5" d="m12957.426306,5475.656293c-239.554623,-193.575141 -613.342439,-326.727984 -1031.530466,-367.382494c-89.832984,-8.578474 -122.875001,-10.070383 -258.140757,-10.070383c-135.265757,0 -168.307774,1.491909 -258.140758,10.070383c-243.684874,23.497561 -491.500001,82.427951 -684.589288,163.363992c-103.256303,42.892373 -242.652311,118.979711 -316.99685,173.807353c-34.07458,25.362446 -65.05147,45.876189 -68.149159,45.876189c-3.09769,0 -23.74895,-14.546109 -45.432774,-32.449012c-50.595588,-40.281532 -164.177521,-109.655282 -240.587185,-146.58002c-86.735295,-42.146418 -262.27101,-105.179557 -364.49475,-131.287957c-537.965338,-138.001546 -1125.493701,-106.298488 -1602.53782,85.784744c-108.419118,43.638327 -252.977942,122.709483 -330.42017,180.520941c-35.107143,26.108401 -66.084033,47.368098 -69.181723,47.741076c-4.130252,0 -28.911764,-17.529927 -55.758403,-38.789624c-354.169119,-278.613932 -1011.911768,-415.123569 -1627.319334,-338.663253c-325.257354,40.654509 -641.22164,149.936815 -864.255255,298.754698c-26.846638,17.529926 -51.628151,32.821989 -54.72584,33.94092c-4.130252,1.118932 -17.553572,10.443361 -29.944328,20.513744l-22.716387,18.648857l-32.009454,-26.1084c-17.553571,-14.173132 -61.953781,-45.503213 -98.093487,-69.000773c-306.67122,-198.796821 -778.552524,-314.046761 -1247.336139,-304.349355c-472.913867,9.697406 -916.91597,137.628569 -1200.870803,346.122796c-38.204832,27.973286 -71.246849,51.097869 -74.344538,51.097869c-3.097689,0 -36.139706,-23.124583 -73.311975,-51.097869c-432.643909,-323.744167 -1254.56408,-438.621129 -1914.371855,-267.424617c-216.838236,56.319549 -388.243699,129.796048 -553.453784,235.721559l-61.953781,40.281532l6.195378,-18.648857c3.097689,-10.070383 19.618697,-75.714362 36.139706,-145.461089c79.507353,-328.965847 134.233193,-552.752137 137.330883,-562.076566c2.065126,-5.967635 0,-10.44336 -3.09769,-10.44336c-4.130252,0 -41.302521,23.124583 -81.572479,51.470846l-74.344538,51.09787l6.195378,-20.513743c3.097689,-11.189315 24.781513,-101.076808 47.4979,-199.542776c22.716386,-98.465968 58.856092,-257.727211 81.572479,-354.328293c22.716387,-96.228105 41.302521,-179.40201 41.302521,-184.62369c0,-8.951451 -1.032563,-8.578474 -22.716387,3.729772c-12.390756,7.086566 -53.693277,35.059852 -92.930672,61.54123c-76.409664,52.962755 -76.409664,53.335732 -59.888656,-10.816338c6.195378,-22.751606 36.139706,-153.666586 67.116597,-291.295154c32.009454,-137.628569 73.311975,-321.879281 93.963236,-410.274866l36.139706,-160.007198l47.497899,-24.243515c178.633404,-90.26047 434.709035,-151.055746 736.21744,-174.180329c110.484244,-8.578474 383.080883,-9.697406 490.467438,-1.864886c438.839287,31.330081 788.878154,140.239409 1027.400214,319.268441c38.204832,28.719241 73.311975,56.31955 78.47479,60.795276c9.293067,7.83252 14.455883,4.848703 53.693278,-27.973287c55.758403,-45.503212 161.079832,-111.893145 241.619748,-151.055746c283.954833,-138.374522 683.556725,-214.461861 1086.256307,-207.002318c328.355043,5.967634 592.691178,49.978938 837.408616,138.7475c167.275211,60.422298 301.508404,132.779866 399.601892,215.580793l43.367647,36.551761l68.14916,-51.470847c38.204832,-28.346263 88.800421,-63.033139 112.54937,-77.579247c23.74895,-14.173132 46.465337,-30.957104 49.563026,-37.297715c13.423319,-26.108401 211.675421,-105.179557 352.103993,-140.239409c142.493698,-35.805807 372.755253,-68.254819 568.942229,-79.81711c296.345589,-17.902904 633.993699,9.697406 878.711137,71.98459c175.535715,44.384281 402.699581,142.850248 402.699581,174.180329c0,8.578475 21.683824,27.973286 66.084034,58.557413c35.107143,25.362446 76.409664,56.31955 89.832984,69.37375c13.423319,12.681223 26.846638,23.124583 29.944328,23.124583c3.097689,-0.372977 40.269958,-26.481378 83.637605,-58.93039c43.367647,-32.076035 106.353992,-73.476498 140.428572,-92.125356c284.987396,-155.904449 672.198532,-240.570262 1102.777315,-240.570262c431.611346,0 829.148112,83.919859 1101.744751,233.110719c58.856093,32.449012 171.405463,109.655282 208.577732,143.223226l17.553572,16.410995l45.432773,-36.178784c247.815127,-198.796821 631.928574,-321.879281 1094.516811,-351.344476c112.54937,-7.459543 341.778362,-5.22168 456.392858,3.729771c156.949581,12.308246 308.736346,36.178784 436.774162,68.627796c97.060924,24.243515 263.303572,86.903676 336.615547,126.066277l61.953782,33.567944l12.390756,53.708709c6.195378,29.838172 55.758404,242.062171 110.484244,471.443119c53.693278,229.753925 97.060925,418.107386 94.995799,418.480363c-2.065126,0.745954 -18.586135,-12.308246 -38.204832,-29.465195c-18.586135,-16.783972 -53.693278,-44.757258 -78.474791,-62.287184c-38.204832,-27.227332 -44.40021,-30.211149 -44.40021,-20.140766c-1.032563,6.340611 15.488446,76.833293 35.107143,156.650403c19.618698,79.81711 58.856093,243.181102 87.767858,363.279745c27.879201,120.098642 53.693277,221.921405 55.758403,226.770108c5.162815,12.308246 -8.260504,5.594657 -28.911765,-13.800155c-23.748949,-22.378629 -131.135504,-100.703831 -140.428572,-102.941694c-4.130252,-1.118931 -5.162815,5.221681 -3.097689,14.173132c18.586135,61.54123 185.861346,735.883918 183.79622,736.629873c-2.065127,0.745954 -16.521009,-9.324429 -32.009454,-22.378629z"/>
  </g>
 </g>
</svg>