<svg width="1280" height="800" xmlns="http://www.w3.org/2000/svg" preserveAspectRatio="xMidYMid meet">
 <metadata>Created by potrace 1.15, written by Peter Selinger 2001-2017</metadata>

 <g stroke="null">
  <title>background</title>
  <rect x="-1" y="-1" width="1282" height="802" id="canvas_background" fill="none" stroke="null"/>
 </g>
 <g stroke="null">
  <title>Layer 1</title>
  <g transform="translate(0,662) scale(0.10000000149011612,-0.10000000149011612) " fill="#000000" id="svg_4" stroke="null">
   <path d="m12933.145,6582.12896c-238.43657,-240.12059 -610.47985,-405.29025 -1026.7161,-455.7202c-89.41372,-10.64119 -122.30152,-12.49183 -256.93597,-12.49183c-134.63444,0 -167.52224,1.85064 -256.93596,12.49183c-242.54755,29.14758 -489.20607,102.24788 -681.39417,202.64512c-102.77439,53.20592 -241.5198,147.58858 -315.51736,215.59961c-33.91555,31.46089 -64.74787,56.9072 -67.8311,56.9072c-3.08323,0 -23.6381,-18.04375 -45.22073,-40.25143c-50.35944,-49.96729 -163.41127,-136.02207 -239.46431,-181.82542c-86.33048,-52.2806 -261.04694,-130.47016 -362.79358,-162.85636c-535.45455,-171.18424 -1120.2408,-131.85813 -1595.05845,106.41182c-107.91311,54.13124 -251.79725,152.21518 -328.87804,223.9275c-34.94329,32.3862 -65.7756,58.75783 -68.85883,59.22049c-4.11098,0 -28.77683,-21.74503 -55.49817,-48.11665c-352.51614,-345.6071 -1007.18897,-514.9407 -1619.72431,-420.09538c-323.73931,50.42995 -638.22893,185.98936 -860.2216,370.59075c-26.72134,21.74502 -51.38719,40.71409 -54.47043,42.10207c-4.11097,1.38798 -17.47164,12.95448 -29.80457,25.4463l-22.61036,23.13301l-31.86006,-32.38621c-17.47165,-17.58108 -61.66463,-56.44453 -97.63567,-85.59212c-305.23992,-246.59784 -774.91886,-389.55981 -1241.51457,-377.53065c-470.70668,12.02916 -912.63654,170.72158 -1195.26609,429.34858c-38.02653,34.69951 -70.91433,63.38444 -73.99756,63.38444c-3.08323,0 -35.97104,-28.68493 -72.96981,-63.38444c-430.62468,-401.58897 -1248.70878,-544.08829 -1905.4371,-331.7273c-215.82621,69.86168 -386.43169,161.00572 -550.8707,292.40119l-61.66464,49.96729l6.16647,-23.133c3.08323,-12.49182 19.52713,-93.92 35.97103,-180.43744c79.13628,-408.06622 133.6067,-685.66229 136.68993,-697.22879c2.05549,-7.40256 0,-12.95448 -3.08323,-12.95448c-4.11097,0 -41.10975,28.68493 -81.19176,63.84709l-73.99756,63.38444l6.16646,-25.44631c3.08324,-13.8798 24.66586,-125.38089 47.27622,-247.52315c22.61037,-122.14227 58.5814,-319.69814 81.19177,-439.52711c22.61036,-119.36631 41.10975,-222.53951 41.10975,-229.01675c0,-11.10385 -1.02774,-10.64119 -22.61037,4.6266c-12.33292,8.79054 -53.44268,43.49005 -92.49694,76.33892c-76.05305,65.69773 -76.05305,66.16039 -59.60914,-13.41715c6.16646,-28.22226 35.97103,-190.61596 66.80335,-361.33754c31.86005,-170.72158 72.96981,-399.27568 93.52469,-508.92612l35.97103,-198.48119l47.27622,-30.07291c177.79968,-111.96374 432.68016,-187.37734 732.78136,-216.06227c109.96859,-10.64118 381.29297,-12.02916 488.17833,-2.3133c436.79114,38.86345 785.1963,173.9602 1022.60513,396.03706c38.02652,35.62482 72.96981,69.86167 78.10853,75.41359c9.2497,9.71587 14.38842,6.01458 53.44268,-34.6995c55.49817,-56.44454 160.32804,-138.79804 240.49206,-187.37735c282.62956,-171.6469 680.36643,-266.02956 1081.18653,-256.77636c326.82255,7.40256 589.92497,61.99646 833.50027,172.10956c166.4945,74.95094 300.1012,164.707 397.73687,267.41754l43.16524,45.3407l67.83109,-63.8471c38.02652,-35.16217 88.38597,-78.18956 112.02408,-96.2333c23.63811,-17.58109 46.24848,-38.40079 49.33171,-46.26601c13.36067,-32.38621 210.68749,-130.47015 350.46065,-173.9602c141.82865,-44.41537 371.01553,-84.6668 566.28686,-99.00927c294.96249,-22.20768 631.03473,12.02917 874.61002,89.2934c174.71645,55.05656 400.8201,177.19883 400.8201,216.06227c0,10.64119 21.58262,34.69951 65.7756,72.63764c34.94329,31.46089 76.05305,69.86168 89.41372,86.05478c13.36067,15.73045 26.72134,28.68493 29.80457,28.68493c3.08323,-0.46266 40.08201,-32.84887 83.24725,-73.1003c43.16524,-39.78877 105.85762,-91.14404 139.77317,-114.27705c283.6573,-193.39192 669.06124,-298.41577 1097.63043,-298.41577c429.59693,0 825.27831,104.09853 1096.60269,289.16257c58.58139,40.25143 170.60547,136.02207 207.60425,177.66148l17.47165,20.35705l45.22073,-44.87803c246.65852,-246.59784 628.97923,-399.27568 1089.40848,-435.82582c112.02408,-9.25321 340.18321,-6.47725 454.26278,4.6266c156.21706,15.26778 307.29541,44.87803 434.73565,85.12946c96.60792,30.0729 262.07468,107.7998 335.04449,156.37911l61.66463,41.63941l12.33293,66.62306c6.16646,37.01281 55.49817,300.26641 109.96859,584.80238c53.44268,284.99862 96.60792,518.64198 94.55243,519.10464c-2.05548,0.92532 -18.49939,-15.26778 -38.02652,-36.55015c-18.49939,-20.8197 -53.44268,-55.51921 -78.10853,-77.26424c-38.02652,-33.77419 -44.19299,-37.47547 -44.19299,-24.98364c-1.02774,7.86522 15.41616,95.30798 34.94329,194.31724c19.52714,99.00927 58.5814,301.65439 87.35823,450.63095c27.74908,148.97655 53.44268,275.28276 55.49817,281.29735c5.13872,15.26778 -8.22195,6.9399 -28.77683,-17.11843c-23.63811,-27.75961 -130.52347,-124.91823 -139.77316,-127.69419c-4.11098,-1.38798 -5.13872,6.47724 -3.08324,17.58109c18.49939,76.33891 184.9939,912.82839 182.93841,913.75371c-2.05549,0.92532 -16.4439,-11.5665 -31.86006,-27.75961z" id="svg_3" fill="#96c9e6" stroke="#0f7dc2"/>
  </g>
  <g transform="translate(0,662) scale(0.10000000149011612,-0.10000000149011612) " fill="#000000" id="svg_1" stroke="null">
   <path d="m12957.42631,6425.68257c-239.55463,-193.57514 -613.34244,-326.72799 -1031.53047,-367.3825c-89.83298,-8.57847 -122.875,-10.07038 -258.14076,-10.07038c-135.26575,0 -168.30777,1.49191 -258.14075,10.07038c-243.68488,23.49756 -491.50001,82.42795 -684.58929,163.364c-103.2563,42.89237 -242.65231,118.97971 -316.99685,173.80735c-34.07458,25.36244 -65.05147,45.87619 -68.14916,45.87619c-3.09769,0 -23.74895,-14.54611 -45.43277,-32.44901c-50.59559,-40.28154 -164.17753,-109.65529 -240.58719,-146.58002c-86.73529,-42.14642 -262.27101,-105.17956 -364.49475,-131.28796c-537.96534,-138.00155 -1125.4937,-106.29849 -1602.53782,85.78474c-108.41912,43.63833 -252.97794,122.70949 -330.42017,180.52094c-35.10714,26.10841 -66.08403,47.3681 -69.18172,47.74108c-4.13025,0 -28.91177,-17.52993 -55.75841,-38.78962c-354.16912,-278.61394 -1011.91176,-415.12357 -1627.31933,-338.66326c-325.25735,40.65451 -641.22164,149.93682 -864.25525,298.7547c-26.84664,17.52993 -51.62816,32.82199 -54.72585,33.94092c-4.13025,1.11893 -17.55357,10.44336 -29.94432,20.51374l-22.71639,18.64886l-32.00945,-26.1084c-17.55358,-14.17313 -61.95379,-45.50321 -98.09349,-69.00077c-306.67122,-198.79682 -778.55253,-314.04676 -1247.33614,-304.34936c-472.91387,9.69741 -916.91597,137.62857 -1200.87081,346.1228c-38.20483,27.97329 -71.24684,51.09787 -74.34453,51.09787c-3.09769,0 -36.13971,-23.12458 -73.31198,-51.09787c-432.64391,-323.74417 -1254.56408,-438.62113 -1914.37185,-267.42462c-216.83824,56.31955 -388.2437,129.79605 -553.45379,235.72156l-61.95378,40.28153l6.19538,-18.64885c3.09769,-10.07039 19.6187,-75.71437 36.13971,-145.46109c79.50735,-328.96585 134.23319,-552.75214 137.33088,-562.07657c2.06512,-5.96763 0,-10.44336 -3.09769,-10.44336c-4.13025,0 -41.30252,23.12458 -81.57248,51.47085l-74.34454,51.09787l6.19538,-20.51375c3.09769,-11.18931 24.78151,-101.0768 47.4979,-199.54277c22.71639,-98.46597 58.85609,-257.72721 81.57248,-354.32829c22.71639,-96.22811 41.30252,-179.40201 41.30252,-184.62369c0,-8.95146 -1.03256,-8.57848 -22.71639,3.72977c-12.39075,7.08656 -53.69327,35.05985 -92.93067,61.54123c-76.40966,52.96275 -76.40966,53.33573 -59.88866,-10.81634c6.19538,-22.75161 36.13971,-153.66659 67.1166,-291.29515c32.00945,-137.62857 73.31198,-321.87929 93.96324,-410.27487l36.1397,-160.0072l47.4979,-24.24351c178.63341,-90.26047 434.70904,-151.05575 736.21744,-174.18033c110.48425,-8.57848 383.08089,-9.69741 490.46744,-1.86489c438.83929,31.33008 788.87815,140.23941 1027.40021,319.26844c38.20484,28.71924 73.31198,56.31955 78.47479,60.79528c9.29307,7.83252 14.45589,4.8487 53.69328,-27.97329c55.75841,-45.50321 161.07983,-111.89314 241.61975,-151.05574c283.95483,-138.37453 683.55673,-214.46187 1086.25631,-207.00232c328.35504,5.96763 592.69118,49.97894 837.40861,138.7475c167.27521,60.4223 301.50841,132.77986 399.60189,215.58079l43.36765,36.55176l68.14916,-51.47085c38.20483,-28.34626 88.80042,-63.03313 112.54937,-77.57924c23.74895,-14.17313 46.46534,-30.95711 49.56303,-37.29772c13.42332,-26.1084 211.67542,-105.17955 352.10399,-140.23941c142.4937,-35.8058 372.75525,-68.25482 568.94223,-79.81711c296.34559,-17.9029 633.9937,9.69741 878.71114,71.98459c175.53571,44.38428 402.69958,142.85025 402.69958,174.18033c0,8.57848 21.68382,27.97329 66.08403,58.55742c35.10714,25.36244 76.40967,56.31955 89.83299,69.37375c13.42331,12.68122 26.84663,23.12458 29.94432,23.12458c3.09769,-0.37298 40.26996,-26.48138 83.63761,-58.93039c43.36765,-32.07604 106.35399,-73.4765 140.42857,-92.12536c284.9874,-155.90445 672.19853,-240.57026 1102.77732,-240.57026c431.61134,0 829.14811,83.91986 1101.74475,233.11072c58.85609,32.44901 171.40546,109.65528 208.57773,143.22323l17.55357,16.41099l45.43277,-36.17878c247.81513,-198.79682 631.92858,-321.87928 1094.51681,-351.34448c112.54937,-7.45954 341.77837,-5.22168 456.39286,3.72977c156.94958,12.30825 308.73635,36.17879 436.77416,68.6278c97.06093,24.24351 263.30358,86.90367 336.61555,126.06628l61.95378,33.56794l12.39076,53.70871c6.19538,29.83817 55.7584,242.06217 110.48424,471.44312c53.69328,229.75392 97.06093,418.10738 94.9958,418.48036c-2.06512,0.74596 -18.58613,-12.30824 -38.20483,-29.46519c-18.58613,-16.78398 -53.69328,-44.75726 -78.47479,-62.28719c-38.20483,-27.22733 -44.40021,-30.21115 -44.40021,-20.14076c-1.03256,6.34061 15.48845,76.83329 35.10714,156.6504c19.6187,79.81711 58.8561,243.1811 87.76786,363.27974c27.8792,120.09865 53.69328,221.92141 55.7584,226.77011c5.16282,12.30825 -8.2605,5.59466 -28.91176,-13.80015c-23.74895,-22.37863 -131.13551,-100.70383 -140.42857,-102.9417c-4.13025,-1.11893 -5.16282,5.22168 -3.09769,14.17314c18.58613,61.54123 185.86134,735.88391 183.79622,736.62987c-2.06513,0.74595 -16.52101,-9.32443 -32.00946,-22.37863l0.00001,0z" id="svg_2" fill="#0f7dc2" stroke="#0f7dc2"/>
  </g>
  <g transform="translate(0,662) scale(0.10000000149011612,-0.10000000149011612) " fill="#000000" id="svg_6" stroke="null">
   <path d="m12957.42631,5475.65629c-239.55463,-193.57514 -613.34244,-326.72798 -1031.53047,-367.38249c-89.83298,-8.57848 -122.875,-10.07038 -258.14076,-10.07038c-135.26575,0 -168.30777,1.4919 -258.14075,10.07038c-243.68488,23.49756 -491.50001,82.42795 -684.58929,163.36399c-103.25631,42.89237 -242.65231,118.97971 -316.99685,173.80735c-34.07458,25.36245 -65.05147,45.87619 -68.14916,45.87619c-3.09769,0 -23.74895,-14.54611 -45.43278,-32.44901c-50.59558,-40.28153 -164.17752,-109.65528 -240.58718,-146.58002c-86.7353,-42.14642 -262.27101,-105.17956 -364.49475,-131.28796c-537.96534,-138.00154 -1125.4937,-106.29848 -1602.53782,85.78475c-108.41912,43.63832 -252.97794,122.70948 -330.42017,180.52094c-35.10714,26.1084 -66.08403,47.3681 -69.18172,47.74107c-4.13026,0 -28.91177,-17.52992 -55.75841,-38.78962c-354.16912,-278.61393 -1011.91176,-415.12357 -1627.31933,-338.66325c-325.25735,40.65451 -641.22164,149.93681 -864.25526,298.7547c-26.84663,17.52992 -51.62815,32.82198 -54.72584,33.94092c-4.13025,1.11893 -17.55357,10.44336 -29.94432,20.51374l-22.71639,18.64886l-32.00945,-26.1084c-17.55358,-14.17314 -61.95379,-45.50322 -98.09349,-69.00078c-306.67122,-198.79682 -778.55253,-314.04676 -1247.33614,-304.34935c-472.91387,9.6974 -916.91597,137.62857 -1200.8708,346.12279c-38.20484,27.97329 -71.24685,51.09787 -74.34454,51.09787c-3.09769,0 -36.13971,-23.12458 -73.31198,-51.09787c-432.64391,-323.74416 -1254.56408,-438.62112 -1914.37185,-267.42461c-216.83824,56.31955 -388.2437,129.79605 -553.45379,235.72156l-61.95378,40.28153l6.19538,-18.64886c3.09769,-10.07038 19.6187,-75.71436 36.13971,-145.46109c79.50735,-328.96584 134.23319,-552.75213 137.33088,-562.07656c2.06513,-5.96764 0,-10.44336 -3.09769,-10.44336c-4.13025,0 -41.30252,23.12458 -81.57248,51.47084l-74.34454,51.09787l6.19538,-20.51374c3.09769,-11.18932 24.78151,-101.07681 47.4979,-199.54278c22.71639,-98.46596 58.85609,-257.72721 81.57248,-354.32829c22.71639,-96.2281 41.30252,-179.40201 41.30252,-184.62369c0,-8.95145 -1.03256,-8.57847 -22.71639,3.72977c-12.39075,7.08657 -53.69327,35.05985 -92.93067,61.54123c-76.40966,52.96276 -76.40966,53.33573 -59.88865,-10.81634c6.19537,-22.7516 36.1397,-153.66658 67.11659,-291.29515c32.00946,-137.62857 73.31198,-321.87928 93.96324,-410.27487l36.13971,-160.00719l47.49789,-24.24352c178.63341,-90.26047 434.70904,-151.05574 736.21744,-174.18033c110.48425,-8.57847 383.08089,-9.6974 490.46744,-1.86488c438.83929,31.33008 788.87816,140.23941 1027.40022,319.26844c38.20483,28.71924 73.31197,56.31955 78.47479,60.79527c9.29306,7.83252 14.45588,4.84871 53.69327,-27.97328c55.75841,-45.50322 161.07984,-111.89315 241.61975,-151.05575c283.95484,-138.37452 683.55673,-214.46186 1086.25631,-207.00232c328.35504,5.96764 592.69118,49.97894 837.40862,138.7475c167.27521,60.4223 301.5084,132.77987 399.60189,215.5808l43.36764,36.55176l68.14916,-51.47085c38.20484,-28.34626 88.80043,-63.03314 112.54937,-77.57925c23.74895,-14.17313 46.46534,-30.9571 49.56303,-37.29771c13.42332,-26.1084 211.67542,-105.17956 352.10399,-140.23941c142.4937,-35.80581 372.75526,-68.25482 568.94223,-79.81711c296.34559,-17.90291 633.9937,9.6974 878.71114,71.98459c175.53571,44.38428 402.69958,142.85025 402.69958,174.18033c0,8.57847 21.68382,27.97328 66.08403,58.55741c35.10715,25.36245 76.40967,56.31955 89.83299,69.37375c13.42332,12.68122 26.84664,23.12458 29.94433,23.12458c3.09769,-0.37297 40.26995,-26.48137 83.6376,-58.93039c43.36765,-32.07603 106.35399,-73.47649 140.42857,-92.12535c284.9874,-155.90445 672.19853,-240.57026 1102.77732,-240.57026c431.61134,0 829.14811,83.91985 1101.74475,233.11071c58.85609,32.44902 171.40546,109.65529 208.57773,143.22323l17.55357,16.411l45.43278,-36.17879c247.81512,-198.79682 631.92857,-321.87928 1094.51681,-351.34447c112.54937,-7.45955 341.77836,-5.22168 456.39285,3.72977c156.94959,12.30824 308.73635,36.17878 436.77417,68.62779c97.06092,24.24352 263.30357,86.90368 336.61554,126.06628l61.95379,33.56794l12.39075,53.70871c6.19538,29.83817 55.75841,242.06217 110.48425,471.44312c53.69327,229.75393 97.06092,418.10739 94.99579,418.48036c-2.06512,0.74596 -18.58613,-12.30824 -38.20483,-29.46519c-18.58613,-16.78397 -53.69328,-44.75726 -78.47479,-62.28718c-38.20483,-27.22734 -44.40021,-30.21115 -44.40021,-20.14077c-1.03256,6.34061 15.48845,76.83329 35.10714,156.6504c19.6187,79.81711 58.8561,243.1811 87.76786,363.27975c27.8792,120.09864 53.69328,221.9214 55.75841,226.77011c5.16281,12.30824 -8.26051,5.59465 -28.91177,-13.80016c-23.74895,-22.37863 -131.1355,-100.70383 -140.42857,-102.94169c-4.13025,-1.11893 -5.16282,5.22168 -3.09769,14.17313c18.58613,61.54123 185.86135,735.88392 183.79622,736.62987c-2.06513,0.74596 -16.52101,-9.32443 -32.00945,-22.37863z" id="svg_5" fill="#0f7dc2" stroke="#0f7dc2"/>
  </g>
  <g transform="translate(0,662) scale(0.10000000149011612,-0.10000000149011612) " fill="#000000" id="svg_8" stroke="null">
   <path d="m12957.42631,3925.417429c-239.55463,-193.57514 -613.34244,-326.72798 -1031.53047,-367.38249c-89.83298,-8.57848 -122.875,-10.07038 -258.14076,-10.07038c-135.26575,0 -168.30777,1.4919 -258.14075,10.07038c-243.68488,23.49756 -491.50001,82.42795 -684.58929,163.36399c-103.25631,42.89237 -242.65231,118.97971 -316.99685,173.80735c-34.07458,25.36245 -65.05147,45.87619 -68.14916,45.87619c-3.09769,0 -23.74895,-14.54611 -45.43278,-32.44901c-50.59558,-40.28153 -164.17752,-109.65528 -240.58718,-146.58002c-86.7353,-42.14642 -262.27101,-105.17956 -364.49475,-131.28796c-537.96534,-138.00154 -1125.4937,-106.29848 -1602.53782,85.78475c-108.41912,43.63832 -252.97794,122.70948 -330.42017,180.52094c-35.10714,26.1084 -66.08403,47.3681 -69.18172,47.74107c-4.13026,0 -28.91177,-17.52992 -55.75841,-38.78962c-354.16912,-278.61393 -1011.91176,-415.12357 -1627.31933,-338.66325c-325.25735,40.65451 -641.22164,149.93681 -864.25526,298.7547c-26.84663,17.52992 -51.62815,32.82198 -54.72584,33.94092c-4.13025,1.11893 -17.55357,10.44336 -29.94432,20.51374l-22.71639,18.64886l-32.00945,-26.1084c-17.55358,-14.17314 -61.95379,-45.50322 -98.09349,-69.00078c-306.67122,-198.79682 -778.55253,-314.04676 -1247.33614,-304.34935c-472.91387,9.6974 -916.91597,137.62857 -1200.8708,346.12279c-38.20484,27.97329 -71.24685,51.09787 -74.34454,51.09787c-3.09769,0 -36.13971,-23.12458 -73.31198,-51.09787c-432.64391,-323.74416 -1254.56408,-438.62112 -1914.37185,-267.42461c-216.83824,56.31955 -388.2437,129.79605 -553.45379,235.72156l-61.95378,40.28153l6.19538,-18.64886c3.09769,-10.07038 19.6187,-75.71436 36.13971,-145.46109c79.50735,-328.96584 134.23319,-552.75213 137.33088,-562.07656c2.06513,-5.96764 0,-10.44336 -3.09769,-10.44336c-4.13025,0 -41.30252,23.12458 -81.57248,51.47084l-74.34454,51.09787l6.19538,-20.51374c3.09769,-11.18932 24.78151,-101.07681 47.4979,-199.54278c22.71639,-98.46596 58.85609,-257.72721 81.57248,-354.32829c22.71639,-96.2281 41.30252,-179.40201 41.30252,-184.62369c0,-8.95145 -1.03256,-8.57847 -22.71639,3.72977c-12.39075,7.08657 -53.69327,35.05985 -92.93067,61.54123c-76.40966,52.96276 -76.40966,53.33573 -59.88865,-10.81634c6.19537,-22.7516 36.1397,-153.66658 67.11659,-291.29515c32.00946,-137.62857 73.31198,-321.87928 93.96324,-410.27487l36.13971,-160.00719l47.49789,-24.24352c178.63341,-90.26047 434.70904,-151.05574 736.21744,-174.18033c110.48425,-8.57847 383.08089,-9.6974 490.46744,-1.86488c438.83929,31.33008 788.87816,140.23941 1027.40022,319.26844c38.20483,28.71924 73.31197,56.31955 78.47479,60.79527c9.29306,7.83252 14.45588,4.84871 53.69327,-27.97328c55.75841,-45.50322 161.07984,-111.89315 241.61975,-151.05575c283.95484,-138.37452 683.55673,-214.46186 1086.25631,-207.00232c328.35504,5.96764 592.69118,49.97894 837.40862,138.7475c167.27521,60.4223 301.5084,132.77987 399.60189,215.5808l43.36764,36.55176l68.14916,-51.47085c38.20484,-28.34626 88.80043,-63.03314 112.54937,-77.57925c23.74895,-14.17313 46.46534,-30.9571 49.56303,-37.29771c13.42332,-26.1084 211.67542,-105.17956 352.10399,-140.23941c142.4937,-35.80581 372.75526,-68.25482 568.94223,-79.81711c296.34559,-17.90291 633.9937,9.6974 878.71114,71.98459c175.53571,44.38428 402.69958,142.85025 402.69958,174.18033c0,8.57847 21.68382,27.97328 66.08403,58.55741c35.10715,25.36245 76.40967,56.31955 89.83299,69.37375c13.42332,12.68122 26.84664,23.12458 29.94433,23.12458c3.09769,-0.37297 40.26995,-26.48137 83.6376,-58.93039c43.36765,-32.07603 106.35399,-73.47649 140.42857,-92.12535c284.9874,-155.90445 672.19853,-240.57026 1102.77732,-240.57026c431.61134,0 829.14811,83.91985 1101.74475,233.11071c58.85609,32.44902 171.40546,109.65529 208.57773,143.22323l17.55357,16.411l45.43278,-36.17879c247.81512,-198.79682 631.92857,-321.87928 1094.51681,-351.34447c112.54937,-7.45955 341.77836,-5.22168 456.39285,3.72977c156.94959,12.30824 308.73635,36.17878 436.77417,68.62779c97.06092,24.24352 263.30357,86.90368 336.61554,126.06628l61.95379,33.56794l12.39075,53.70871c6.19538,29.83817 55.75841,242.06217 110.48425,471.44312c53.69327,229.75393 97.06092,418.10739 94.99579,418.48036c-2.06512,0.74596 -18.58613,-12.30824 -38.20483,-29.46519c-18.58613,-16.78397 -53.69328,-44.75726 -78.47479,-62.28718c-38.20483,-27.22734 -44.40021,-30.21115 -44.40021,-20.14077c-1.03256,6.34061 15.48845,76.83329 35.10714,156.6504c19.6187,79.81711 58.8561,243.1811 87.76786,363.27975c27.8792,120.09864 53.69328,221.9214 55.75841,226.77011c5.16281,12.30824 -8.26051,5.59465 -28.91177,-13.80016c-23.74895,-22.37863 -131.1355,-100.70383 -140.42857,-102.94169c-4.13025,-1.11893 -5.16282,5.22168 -3.09769,14.17313c18.58613,61.54123 185.86135,735.88392 183.79622,736.62987c-2.06513,0.74596 -16.52101,-9.32443 -32.00945,-22.37863z" id="svg_7" fill="#0f7dc2" stroke="#0f7dc2"/>
  </g>
  <g transform="translate(0,662) scale(0.10000000149011612,-0.10000000149011612) " fill="#000000" id="svg_10" stroke="null">
   <path d="m12957.42631,2116.62953c-239.55463,-193.57514 -613.34244,-326.72798 -1031.53047,-367.38249c-89.83298,-8.57848 -122.875,-10.07038 -258.14076,-10.07038c-135.26575,0 -168.30777,1.4919 -258.14075,10.07038c-243.68488,23.49756 -491.50001,82.42795 -684.58929,163.36399c-103.25631,42.89237 -242.65231,118.97971 -316.99685,173.80735c-34.07458,25.36245 -65.05147,45.87619 -68.14916,45.87619c-3.09769,0 -23.74895,-14.54611 -45.43278,-32.44901c-50.59558,-40.28153 -164.17752,-109.65528 -240.58718,-146.58002c-86.7353,-42.14642 -262.27101,-105.17956 -364.49475,-131.28796c-537.96534,-138.00154 -1125.4937,-106.29848 -1602.53782,85.78475c-108.41912,43.63832 -252.97794,122.70948 -330.42017,180.52094c-35.10714,26.1084 -66.08403,47.3681 -69.18172,47.74107c-4.13026,0 -28.91177,-17.52992 -55.75841,-38.78962c-354.16912,-278.61393 -1011.91176,-415.12357 -1627.31933,-338.66325c-325.25735,40.65451 -641.22164,149.93681 -864.25526,298.7547c-26.84663,17.52992 -51.62815,32.82198 -54.72584,33.94092c-4.13025,1.11893 -17.55357,10.44336 -29.94432,20.51374l-22.71639,18.64886l-32.00945,-26.1084c-17.55358,-14.17314 -61.95379,-45.50322 -98.09349,-69.00078c-306.67122,-198.79682 -778.55253,-314.04676 -1247.33614,-304.34935c-472.91387,9.6974 -916.91597,137.62857 -1200.8708,346.12279c-38.20484,27.97329 -71.24685,51.09787 -74.34454,51.09787c-3.09769,0 -36.13971,-23.12458 -73.31198,-51.09787c-432.64391,-323.74416 -1254.56408,-438.62112 -1914.37185,-267.42461c-216.83824,56.31955 -388.2437,129.79605 -553.45379,235.72156l-61.95378,40.28153l6.19538,-18.64886c3.09769,-10.07038 19.6187,-75.71436 36.13971,-145.46109c79.50735,-328.96584 134.23319,-552.75213 137.33088,-562.07656c2.06513,-5.96764 0,-10.44336 -3.09769,-10.44336c-4.13025,0 -41.30252,23.12458 -81.57248,51.47084l-74.34454,51.09787l6.19538,-20.51374c3.09769,-11.18932 24.78151,-101.07681 47.4979,-199.54278c22.71639,-98.46596 58.85609,-257.72721 81.57248,-354.32829c22.71639,-96.2281 41.30252,-179.40201 41.30252,-184.62369c0,-8.95145 -1.03256,-8.57847 -22.71639,3.72977c-12.39075,7.08657 -53.69327,35.05985 -92.93067,61.54123c-76.40966,52.96276 -76.40966,53.33573 -59.88865,-10.81634c6.19537,-22.7516 36.1397,-153.66658 67.11659,-291.29515c32.00946,-137.62857 73.31198,-321.87928 93.96324,-410.27487l36.13971,-160.00719l47.49789,-24.24352c178.63341,-90.26047 434.70904,-151.05574 736.21744,-174.18033c110.48425,-8.57847 383.08089,-9.6974 490.46744,-1.86488c438.83929,31.33008 788.87816,140.23941 1027.40022,319.26844c38.20483,28.71924 73.31197,56.31955 78.47479,60.79527c9.29306,7.83252 14.45588,4.84871 53.69327,-27.97328c55.75841,-45.50322 161.07984,-111.89315 241.61975,-151.05575c283.95484,-138.37452 683.55673,-214.46186 1086.25631,-207.00232c328.35504,5.96764 592.69118,49.97894 837.40862,138.7475c167.27521,60.4223 301.5084,132.77987 399.60189,215.5808l43.36764,36.55176l68.14916,-51.47085c38.20484,-28.34626 88.80043,-63.03314 112.54937,-77.57925c23.74895,-14.17313 46.46534,-30.9571 49.56303,-37.29771c13.42332,-26.1084 211.67542,-105.17956 352.10399,-140.23941c142.4937,-35.80581 372.75526,-68.25482 568.94223,-79.81711c296.34559,-17.90291 633.9937,9.6974 878.71114,71.98459c175.53571,44.38428 402.69958,142.85025 402.69958,174.18033c0,8.57847 21.68382,27.97328 66.08403,58.55741c35.10715,25.36245 76.40967,56.31955 89.83299,69.37375c13.42332,12.68122 26.84664,23.12458 29.94433,23.12458c3.09769,-0.37297 40.26995,-26.48137 83.6376,-58.93039c43.36765,-32.07603 106.35399,-73.47649 140.42857,-92.12535c284.9874,-155.90445 672.19853,-240.57026 1102.77732,-240.57026c431.61134,0 829.14811,83.91985 1101.74475,233.11071c58.85609,32.44902 171.40546,109.65529 208.57773,143.22323l17.55357,16.411l45.43278,-36.17879c247.81512,-198.79682 631.92857,-321.87928 1094.51681,-351.34447c112.54937,-7.45955 341.77836,-5.22168 456.39285,3.72977c156.94959,12.30824 308.73635,36.17878 436.77417,68.62779c97.06092,24.24352 263.30357,86.90368 336.61554,126.06628l61.95379,33.56794l12.39075,53.70871c6.19538,29.83817 55.75841,242.06217 110.48425,471.44312c53.69327,229.75393 97.06092,418.10739 94.99579,418.48036c-2.06512,0.74596 -18.58613,-12.30824 -38.20483,-29.46519c-18.58613,-16.78397 -53.69328,-44.75726 -78.47479,-62.28718c-38.20483,-27.22734 -44.40021,-30.21115 -44.40021,-20.14077c-1.03256,6.34061 15.48845,76.83329 35.10714,156.6504c19.6187,79.81711 58.8561,243.1811 87.76786,363.27975c27.8792,120.09864 53.69328,221.9214 55.75841,226.77011c5.16281,12.30824 -8.26051,5.59465 -28.91177,-13.80016c-23.74895,-22.37863 -131.1355,-100.70383 -140.42857,-102.94169c-4.13025,-1.11893 -5.16282,5.22168 -3.09769,14.17313c18.58613,61.54123 185.86135,735.88392 183.79622,736.62987c-2.06513,0.74596 -16.52101,-9.32443 -32.00945,-22.37863z" id="svg_9" fill="#0f7dc2" stroke="#0f7dc2"/>
  </g>
  <g transform="translate(0,662) scale(0.10000000149011612,-0.10000000149011612) " fill="#000000" id="svg_12" stroke="null">
   <path d="m12957.42631,478.080492c-239.55463,-193.57514 -613.34244,-326.72798 -1031.53047,-367.38249c-89.83298,-8.57848 -122.875,-10.07038 -258.14076,-10.07038c-135.26575,0 -168.30777,1.4919 -258.14075,10.07038c-243.68488,23.49756 -491.50001,82.42795 -684.58929,163.36399c-103.25631,42.89237 -242.65231,118.97971 -316.99685,173.80735c-34.07458,25.36245 -65.05147,45.87619 -68.14916,45.87619c-3.09769,0 -23.74895,-14.54611 -45.43278,-32.44901c-50.59558,-40.28153 -164.17752,-109.65528 -240.58718,-146.58002c-86.7353,-42.14642 -262.27101,-105.17956 -364.49475,-131.28796c-537.96534,-138.00154 -1125.4937,-106.29848 -1602.53782,85.78475c-108.41912,43.63832 -252.97794,122.70948 -330.42017,180.52094c-35.10714,26.1084 -66.08403,47.3681 -69.18172,47.74107c-4.13026,0 -28.91177,-17.52992 -55.75841,-38.78962c-354.16912,-278.61393 -1011.91176,-415.12357 -1627.31933,-338.66325c-325.25735,40.65451 -641.22164,149.93681 -864.25526,298.7547c-26.84663,17.52992 -51.62815,32.82198 -54.72584,33.94092c-4.13025,1.11893 -17.55357,10.44336 -29.94432,20.51374l-22.71639,18.64886l-32.00945,-26.1084c-17.55358,-14.17314 -61.95379,-45.50322 -98.09349,-69.00078c-306.67122,-198.79682 -778.55253,-314.04676 -1247.33614,-304.34935c-472.91387,9.6974 -916.91597,137.62857 -1200.8708,346.12279c-38.20484,27.97329 -71.24685,51.09787 -74.34454,51.09787c-3.09769,0 -36.13971,-23.12458 -73.31198,-51.09787c-432.64391,-323.74416 -1254.56408,-438.62112 -1914.37185,-267.42461c-216.83824,56.31955 -388.2437,129.79605 -553.45379,235.72156l-61.95378,40.28153l6.19538,-18.64886c3.09769,-10.07038 19.6187,-75.71436 36.13971,-145.46109c79.50735,-328.96584 134.23319,-552.75213 137.33088,-562.07656c2.06513,-5.96764 0,-10.44336 -3.09769,-10.44336c-4.13025,0 -41.30252,23.12458 -81.57248,51.47084l-74.34454,51.09787l6.19538,-20.51374c3.09769,-11.18932 24.78151,-101.07681 47.4979,-199.54278c22.71639,-98.46596 58.85609,-257.72721 81.57248,-354.32829c22.71639,-96.2281 41.30252,-179.40201 41.30252,-184.62369c0,-8.95145 -1.03256,-8.57847 -22.71639,3.72977c-12.39075,7.08657 -53.69327,35.05985 -92.93067,61.54123c-76.40966,52.96276 -76.40966,53.33573 -59.88865,-10.81634c6.19537,-22.7516 36.1397,-153.66658 67.11659,-291.29515c32.00946,-137.62857 73.31198,-321.87928 93.96324,-410.27487l36.13971,-160.00719l47.49789,-24.24352c178.63341,-90.26047 434.70904,-151.05574 736.21744,-174.18033c110.48425,-8.57847 383.08089,-9.6974 490.46744,-1.86488c438.83929,31.33008 788.87816,140.23941 1027.40022,319.26844c38.20483,28.71924 73.31197,56.31955 78.47479,60.79527c9.29306,7.83252 14.45588,4.84871 53.69327,-27.97328c55.75841,-45.50322 161.07984,-111.89315 241.61975,-151.05575c283.95484,-138.37452 683.55673,-214.46186 1086.25631,-207.00232c328.35504,5.96764 592.69118,49.97894 837.40862,138.7475c167.27521,60.4223 301.5084,132.77987 399.60189,215.5808l43.36764,36.55176l68.14916,-51.47085c38.20484,-28.34626 88.80043,-63.03314 112.54937,-77.57925c23.74895,-14.17313 46.46534,-30.9571 49.56303,-37.29771c13.42332,-26.1084 211.67542,-105.17956 352.10399,-140.23941c142.4937,-35.80581 372.75526,-68.25482 568.94223,-79.81711c296.34559,-17.90291 633.9937,9.6974 878.71114,71.98459c175.53571,44.38428 402.69958,142.85025 402.69958,174.18033c0,8.57847 21.68382,27.97328 66.08403,58.55741c35.10715,25.36245 76.40967,56.31955 89.83299,69.37375c13.42332,12.68122 26.84664,23.12458 29.94433,23.12458c3.09769,-0.37297 40.26995,-26.48137 83.6376,-58.93039c43.36765,-32.07603 106.35399,-73.47649 140.42857,-92.12535c284.9874,-155.90445 672.19853,-240.57026 1102.77732,-240.57026c431.61134,0 829.14811,83.91985 1101.74475,233.11071c58.85609,32.44902 171.40546,109.65529 208.57773,143.22323l17.55357,16.411l45.43278,-36.17879c247.81512,-198.79682 631.92857,-321.87928 1094.51681,-351.34447c112.54937,-7.45955 341.77836,-5.22168 456.39285,3.72977c156.94959,12.30824 308.73635,36.17878 436.77417,68.62779c97.06092,24.24352 263.30357,86.90368 336.61554,126.06628l61.95379,33.56794l12.39075,53.70871c6.19538,29.83817 55.75841,242.06217 110.48425,471.44312c53.69327,229.75393 97.06092,418.10739 94.99579,418.48036c-2.06512,0.74596 -18.58613,-12.30824 -38.20483,-29.46519c-18.58613,-16.78397 -53.69328,-44.75726 -78.47479,-62.28718c-38.20483,-27.22734 -44.40021,-30.21115 -44.40021,-20.14077c-1.03256,6.34061 15.48845,76.83329 35.10714,156.6504c19.6187,79.81711 58.8561,243.1811 87.76786,363.27975c27.8792,120.09864 53.69328,221.9214 55.75841,226.77011c5.16281,12.30824 -8.26051,5.59465 -28.91177,-13.80016c-23.74895,-22.37863 -131.1355,-100.70383 -140.42857,-102.94169c-4.13025,-1.11893 -5.16282,5.22168 -3.09769,14.17313c18.58613,61.54123 185.86135,735.88392 183.79622,736.62987c-2.06513,0.74596 -16.52101,-9.32443 -32.00945,-22.37863z" id="svg_11" fill="#0f7dc2" stroke="#0f7dc2"/>
  </g>
 </g>
</svg>