<?xml version="1.0" standalone="no"?>
<!DOCTYPE svg PUBLIC "-//W3C//DTD SVG 20010904//EN"
 "http://www.w3.org/TR/2001/REC-SVG-20010904/DTD/svg10.dtd">
<svg version="1.0" xmlns="http://www.w3.org/2000/svg"
 width="1280.000000pt" height="662.000000pt" viewBox="0 0 1280.000000 662.000000"
 preserveAspectRatio="xMidYMid meet">
<metadata>
Created by potrace 1.15, written by Peter Selinger 2001-2017
</metadata>
<g transform="translate(0.000000,662.000000) scale(0.100000,-0.100000)"
fill="#000000" stroke="none">
<path d="M12764 6538 c-232 -519 -594 -876 -999 -985 -87 -23 -119 -27 -250
-27 -131 0 -163 4 -250 27 -236 63 -476 221 -663 438 -100 115 -235 319 -307
466 -33 68 -63 123 -66 123 -3 0 -23 -39 -44 -87 -49 -108 -159 -294 -233
-393 -84 -113 -254 -282 -353 -352 -521 -370 -1090 -285 -1552 230 -105 117
-245 329 -320 484 -34 70 -64 127 -67 128 -4 0 -28 -47 -54 -104 -343 -747
-980 -1113 -1576 -908 -315 109 -621 402 -837 801 -26 47 -50 88 -53 91 -4 3
-17 28 -29 55 l-22 50 -31 -70 c-17 -38 -60 -122 -95 -185 -297 -533 -754
-842 -1208 -816 -458 26 -888 369 -1163 928 -37 75 -69 137 -72 137 -3 0 -35
-62 -71 -137 -419 -868 -1215 -1176 -1854 -717 -210 151 -376 348 -536 632
l-60 108 6 -50 c3 -27 19 -203 35 -390 77 -882 130 -1482 133 -1507 2 -16 0
-28 -3 -28 -4 0 -40 62 -79 138 l-72 137 6 -55 c3 -30 24 -271 46 -535 22
-264 57 -691 79 -950 22 -258 40 -481 40 -495 0 -24 -1 -23 -22 10 -12 19 -52
94 -90 165 -74 142 -74 143 -58 -29 6 -61 35 -412 65 -781 31 -369 71 -863 91
-1100 l35 -429 46 -65 c173 -242 421 -405 713 -467 107 -23 371 -26 475 -5
425 84 764 376 995 856 37 77 71 151 76 163 9 21 14 13 52 -75 54 -122 156
-300 234 -405 275 -371 662 -575 1052 -555 318 16 574 134 811 372 162 162
292 356 387 578 l42 98 66 -138 c37 -76 86 -169 109 -208 23 -38 45 -83 48
-100 13 -70 205 -282 341 -376 138 -96 361 -183 551 -214 287 -48 614 26 851
193 170 119 390 383 390 467 0 23 21 75 64 157 34 68 74 151 87 186 13 34 26
62 29 62 3 -1 39 -71 81 -158 42 -86 103 -197 136 -247 276 -418 651 -645
1068 -645 418 0 803 225 1067 625 57 87 166 294 202 384 l17 44 44 -97 c240
-533 612 -863 1060 -942 109 -20 331 -14 442 10 152 33 299 97 423 184 94 65
255 233 326 338 l60 90 12 144 c6 80 54 649 107 1264 52 616 94 1121 92 1122
-2 2 -18 -33 -37 -79 -18 -45 -52 -120 -76 -167 -37 -73 -43 -81 -43 -54 -1
17 15 206 34 420 19 214 57 652 85 974 27 322 52 595 54 608 5 33 -8 15 -28
-37 -23 -60 -127 -270 -136 -276 -4 -3 -5 14 -3 38 18 165 180 1973 178 1975
-2 2 -16 -25 -31 -60z"/>
</g>
</svg>
